<?xml version="1.0" encoding="UTF-8"?>
<svg id="Layer_1" data-name="Layer 1" xmlns="http://www.w3.org/2000/svg" viewBox="0 0 697.91 107.84">
  <defs>
    <style>
      .cls-1 {
        fill: #f7e9d4;
      }

      .cls-2 {
        fill: #e88f2c;
      }
    </style>
  </defs>
  <path class="cls-1" d="M42.08,45.12c1.62,0,3.24,.03,4.86,0,5.71-.12,7.68-1.95,7.68-7.75,0-4.75-.23-9.53-.74-14.25-.46-4.26-.5-8.5-.37-12.74,.15-5.2,2.44-7.27,7.69-7.93,4.88-.62,9.72-.29,14.56,.13,4.56,.4,7.1,3.63,7.3,8.9,.22,5.99-.59,11.93-.85,17.9-.61,13.87-.48,27.74-.06,41.62,.25,8.4,1.08,16.78,.94,25.2-.1,6.28-3,9.6-9.32,10.05-3.72,.26-7.47,.48-11.22,.06-6.02-.67-8.96-3.93-9.1-10.03-.12-5.29,.6-10.51,1-15.75,.05-.61,.17-1.21,.2-1.81,.44-6.98-1.3-9.02-8.23-9.85-4.07-.49-8.1,.14-12.13,.42-2.79,.19-3.93,2.2-4.18,4.78-.39,3.95-.2,7.92,.17,11.84,.32,3.34,.44,6.67,.55,10.01,.19,5.89-1.84,8.74-7.57,9.92-5.09,1.04-10.32,.92-15.42,.15-5.34-.81-7.48-3.59-7.73-9.28-.17-3.84-.17-7.71,.05-11.55,.99-17,1.27-34.02,.88-51.03-.15-6.48-.51-12.95-.44-19.44C.71,6.09,3.83,2.76,12.39,2.11c3.95-.3,7.91-.05,11.83,.51,4.84,.69,7.38,4.9,6.84,10.82-.64,7.05-1.58,14.08-1.53,21.19,.07,9.45,1.03,10.47,10.42,10.57,.71,0,1.42,0,2.13,0v-.07Z"/>
  <path class="cls-1" d="M493.7,.06c10.01-.14,18.51,1.5,25.72,7.06,5.93,4.58,9.78,10.47,9.64,18.37-.1,5.78-2.51,9.51-7.45,11.31-5.66,2.07-11.1,.82-14.7-3.4-1.38-1.62-2.64-3.35-4.09-4.9-3.21-3.41-7.19-4.35-11.67-3.24-2.42,.6-4.29,1.93-4.66,4.6-.36,2.6,.44,4.79,2.65,6.37,3.08,2.21,6.56,3.61,10.01,5.07,6.43,2.73,12.93,5.3,18.77,9.26,12.43,8.45,17.24,20.97,13.32,35.44-2.11,7.79-7.19,13.33-14.17,17.03-8.11,4.29-16.93,5.16-25.98,4.67-7.88-.42-15.57-1.51-22.31-5.98-7.33-4.85-12.17-11.23-11.93-20.54,.16-6.15,3.33-10.37,9.37-12.39,5.23-1.75,9.94-.25,13.66,4.54,5.12,6.58,11.39,10.24,20.02,8.35,2.14-.47,3.81-1.46,4.37-3.7,.62-2.45,.1-4.61-1.91-6.31-3.07-2.61-6.77-4.03-10.43-5.51-7.71-3.11-15.45-6.19-21.92-11.62-10.28-8.63-13.12-19.76-9.86-32.31,3.25-12.52,12.34-19.02,24.64-21.48,3.29-.66,6.62-.9,8.9-.72Z"/>
  <path class="cls-1" d="M147.84,1.88c.81,0,1.62,0,2.43,0,6.5,.06,8.92,1.73,10.82,8.01,2.08,6.88,3.96,13.81,5.9,20.73,3.04,10.82,6.05,21.64,9.09,32.46,.22,.78,.43,1.57,.75,2.31,.29,.69,.32,1.8,1.42,1.65,.79-.11,.91-1.03,1.09-1.68,1.28-4.48,2.54-8.96,3.79-13.44,3.81-13.75,7.58-27.52,11.43-41.25,2.01-7.16,4.21-8.74,11.72-8.76,2.63,0,5.28-.1,7.9,.13,6.66,.58,10.11,5.07,9.14,11.68-.43,2.91-1.18,5.73-2.1,8.53-7.74,23.46-15.43,46.93-23.14,70.4-.16,.48-.35,.95-.49,1.44-2.14,7.66-6.86,12.18-15.09,12.63-3.04,.17-6.08,.33-9.11,.08-7.31-.62-12.49-3.94-14.99-11.24-8.66-25.18-17.15-50.42-25.05-75.84-.72-2.3-1.13-4.74-1.31-7.15-.38-5.29,2.21-8.66,7.32-10.03,2.79-.75,5.63-.59,8.46-.65Z"/>
  <path class="cls-1" d="M264.86,105.71c-7.4,0-14.8,.07-22.21-.02-8.15-.09-12.42-4.19-12.66-12.31-.34-11.35,.64-22.68,.95-34.02,.15-5.27,.15-10.53,0-15.79-.3-10.12-.91-20.24-.35-30.36,.36-6.61,4.04-10.24,10.57-10.69,10.12-.7,20.25,.31,30.38,.02,4.36-.12,8.72-.09,13.08,0,5.27,.11,8.54,2.61,10.11,7.61,1.15,3.65,1.3,7.38,.52,11.1-.99,4.76-4.65,7.2-9.98,6.81-6.56-.48-13.11-1.1-19.68-1.38-5.27-.23-7.16,1.78-7.28,7.01-.19,8.2,.66,9.13,8.91,8.93,4.45-.11,8.89-.67,13.36-.55,5.62,.15,7.82,1.95,8.97,7.48,.65,3.12,.6,6.24-.18,9.33-1.02,4.07-4.1,6.47-8.32,6.7-4.68,.26-9.3-.63-13.95-.65-7.49-.03-10.77,4.98-8.01,11.98,1.33,3.38,4.15,3.86,7.15,4.04,6.39,.39,12.75-.32,19.13-.6,1.52-.07,3.04-.06,4.56-.02,3.94,.1,6.25,1.73,7.47,5.47,1.16,3.52,1.44,7.16,.74,10.8-1.15,5.99-4.6,8.96-10.76,9.05-7.5,.11-15.01,.03-22.51,.03h0Z"/>
  <path class="cls-1" d="M418.17,105.7c-7.4,0-14.8,.07-22.19-.02-7.86-.09-12.08-4.22-12.11-12.04-.09-19.85,1.4-39.69,.61-59.55-.21-5.36-.41-10.72-.6-16.08-.08-2.33,.13-4.64,.53-6.95,.93-5.39,4.21-8.24,9.75-8.57,9.22-.54,18.43,.26,27.64,.04,5.27-.13,10.54-.11,15.81,.01,7.29,.16,10.97,3.9,11.12,11.2,.05,2.72,.34,5.46-.49,8.15-1.2,3.92-3.39,5.72-7.42,5.99-5.79,.38-11.51-.6-17.26-.98-.91-.06-1.82-.28-2.72-.25-2.86,.08-6.35-.94-8.06,2.13-2.06,3.71-1.57,7.89-.16,11.79,.68,1.88,2.61,2.11,4.38,2.06,5.26-.15,10.52-.47,15.78-.54,6.64-.1,9.42,2.58,9.89,9.16,.16,2.23,.3,4.43-.02,6.66-.66,4.6-3.74,7.5-8.39,7.62-3.74,.1-7.5,.17-11.23-.41-.7-.11-1.41-.13-2.12-.14-7.83-.18-10.5,2.89-9.21,10.63,.6,3.62,2.58,5.16,6.94,5.36,6.8,.32,13.57-.25,20.32-.86,7.31-.65,10.92,2.17,11.64,9.38,.23,2.33,.26,4.62,.02,6.95-.61,5.87-3.93,9.14-9.96,9.22-7.5,.1-15,.02-22.5,.03Z"/>
  <path class="cls-1" d="M343.35,2.52c6.89,0,13.79-.04,20.68,0,5.63,.04,8.8,2.74,9.96,8.27,.76,3.64,.74,7.26-.25,10.83-1.09,3.94-3.89,6.06-7.99,6.22-5.59,.23-11.15-.23-16.66-1-8.68-1.22-11.89,1.55-11.52,10.32,.29,6.9,1.72,8.05,8.76,8.07,5.16,.02,10.28-1.21,15.46-.25,3.23,.6,5.37,2.13,6.11,5.45,.91,4.09,1.35,8.18,.36,12.32-1.18,4.95-5.17,7.23-11.32,6.76-4.14-.32-8.3-.43-12.45-.39-4.41,.04-5.89,1.52-5.84,5.92,.07,6.78,.47,13.56,.55,20.34,.08,6.9-3.45,10.43-10.31,10.93-4.46,.33-8.89,.6-13.26-.62-4.27-1.2-6.17-3.6-6.62-8.03-.74-7.31,.38-14.55,.62-21.82,.66-19.56-.29-39.1-.61-58.65-.02-1.11-.04-2.24,.11-3.34,.94-7.3,5.15-11.17,12.63-11.32,7.2-.14,14.4-.03,21.59-.03Z"/>
  <path class="cls-1" d="M569.23,2.51c11.56,0,21.79-.06,32.01,.02,7.45,.06,9.72,2.02,10.92,9.34,.54,3.31,.51,6.7,.04,10-.81,5.68-3.77,8.19-9.76,8.29-3.13,.05-6.26-.46-9.39-.55-4.61-.14-6.05,1.17-6.16,5.84-.13,5.27-.19,10.54,0,15.8,.55,14.57,1.2,29.13,1.91,43.7,.32,6.54-1.98,9.66-8.36,10.82-4.95,.9-9.9,.7-14.81-.23-4.71-.9-6.97-3.92-7.16-9.15-.22-6.29,.5-12.54,.86-18.81,.83-14.26,1.38-28.52,.93-42.81-.11-3.39-1.44-4.78-4.86-5-2.62-.17-5.28-.16-7.89,.13-8.75,.98-12.86-2.08-13.9-10.71-.36-2.94-.11-5.86,.79-8.71,1.82-5.77,6.57-8.69,14.26-8.25,7.3,.41,14.59,.05,20.55,.27Z"/>
  <path class="cls-1" d="M95.47,89.57c.86-16.99,1.57-34,1.15-51.02-.18-7.29-.57-14.57-.51-21.86,.01-1.32-.04-2.64,.06-3.95,.48-6.27,1.8-10.21,9.72-10.45,4.07-.12,8.1-.12,12.13,.32,3.66,.4,5.7,2.57,6.4,6.26,.69,3.64,.13,7.26,.11,10.89-.14,21.97-.64,43.96,.94,65.91,.24,3.33,.2,6.68,.2,10.02,0,6.52-1.98,9.16-8.34,10.24-4.79,.81-9.7,.89-14.5-.09-4.98-1.01-7.2-3.87-7.35-8.97-.07-2.43-.01-4.86-.01-7.29Z"/>
  <path class="cls-2" d="M697.9,33.54c.08,6.33-.43,12.33-2.73,18.06-2.57,6.43-6.77,11.19-13.85,12.48-6.23,1.14-12.21,.48-17.07-4.19-3.43-3.29-5.42-7.41-6.59-11.97-1.65-6.47-1.72-13.04-1.33-19.64,.26-4.38,.96-8.69,2.55-12.79,1.85-4.79,4.59-9.01,9.48-11.07,7.27-3.06,14.36-2.67,20.75,2.36,3.59,2.83,5.54,6.8,6.8,11.11,1.52,5.18,2.11,10.49,1.99,15.64Zm-13.73-.02c-.08-1.73,.06-4.17-.29-6.58-.45-3.1-.87-6.2-2.58-8.94-2.34-3.73-6.77-3.7-9,.06-1.2,2.03-1.8,4.25-2.08,6.54-.69,5.53-.8,11.09-.26,16.63,.26,2.62,.71,5.23,2.04,7.58,1.32,2.32,3.46,3.28,6.05,2.74,2.73-.58,3.98-2.63,4.79-5.01,1.36-4,1.39-8.17,1.34-13.03Z"/>
  <path class="cls-2" d="M652.32,11.89c-.29,9.73-.3,19.45-.31,29.18,0,6.06,.17,12.11,.33,18.16,.08,3.22-1.05,4.28-4.28,4.31-1.98,.02-3.96,.11-5.93,.08-3.26-.06-4.32-1.12-4.28-4.35,.15-10.88,.55-21.75,.54-32.64,0-.86,.16-1.72,.18-2.59,.04-1.77-.39-2.03-1.95-1.27-1.04,.5-2.06,1.04-3.13,1.47-2.67,1.06-4.1,.52-5.36-2.01-.79-1.59-1.39-3.25-1.75-5-.34-1.65,.19-2.91,1.55-3.86,1.09-.76,2.3-1.28,3.5-1.84,3.04-1.4,5.57-3.53,7.98-5.77,1.86-1.73,3.91-2.67,6.47-2.51,.86,.05,1.73,0,2.6,.01,2.5,.03,3.69,1.16,3.83,3.7,.05,.82,.02,1.65,.02,2.47,0,.82,0,1.65,0,2.47Z"/>
</svg>